<?xml version="1.0" encoding="UTF-8"?>
<svg id="Layer_2" data-name="Layer 2" xmlns="http://www.w3.org/2000/svg" viewBox="0 0 441 624.19">
  <defs>
    <style>
      .cls-1 {
        fill: #0aadc7;
      }
    </style>
  </defs>
  <g id="Layer_7" data-name="Layer 7">
    <path class="cls-1" d="M0,388.22v187.55c0,26.74,21.68,48.42,48.42,48.42h174.62c131.45,0,217.96-72.09,217.96-183.19,0-47.79-16.02-86.77-45.86-113.91-18.7-17.01-20.79-45.46-5.17-65.34,19.47-24.76,29.83-56.88,29.83-94.68C419.8,62.76,338.39,0,205.24,0H48.42C21.68,0,0,21.68,0,48.42v148.94c0,26.63,21.74,48.15,48.37,47.86l44.19-.47c26.66-.28,48.08-22.07,47.91-48.73l-.15-23.15c-.17-26.65,21.22-48.42,47.87-48.73l28.92-.33c41.56,0,66.15,22.9,66.15,60.21s-24.59,60.21-66.15,60.21h-58.46c-11.52,0-22.66,4.16-31.37,11.71l-110.78,96.1c-10.48,9.09-16.5,22.28-16.5,36.16ZM224.74,500.37h-35.54c-26.74,0-48.42-21.68-48.42-48.42v-37.15c0-26.74,21.68-48.42,48.42-48.42h35.54c46.64,0,73.78,24.59,73.78,67s-27.14,67-73.78,67Z"/>
  </g>
</svg>